<svg id="visual" viewBox="0 0 900 600" width="900" height="600" xmlns="http://www.w3.org/2000/svg" xmlns:xlink="http://www.w3.org/1999/xlink" version="1.1"><g stroke-width="1" stroke-linejoin="bevel"><path d="M484.6 324.3L541.8 391L543.8 333.3Z" fill="#15384f" stroke="#15384f"></path><path d="M484.6 324.3L473.6 409L541.8 391Z" fill="#112e42" stroke="#112e42"></path><path d="M484.6 324.3L425.4 335.3L473.6 409Z" fill="#00101c" stroke="#00101c"></path><path d="M543.8 333.3L482.6 262.7L484.6 324.3Z" fill="#00101c" stroke="#00101c"></path><path d="M484.6 324.3L482.6 262.7L425.4 335.3Z" fill="#1d4e6b" stroke="#1d4e6b"></path><path d="M411.4 460.7L487.6 461.7L473.6 409Z" fill="#297ea6" stroke="#297ea6"></path><path d="M473.6 409L487.6 461.7L541.8 391Z" fill="#15384f" stroke="#15384f"></path><path d="M487.6 461.7L554.8 458.7L541.8 391Z" fill="#081a28" stroke="#081a28"></path><path d="M541.8 391L625.1 394L543.8 333.3Z" fill="#246688" stroke="#246688"></path><path d="M425.4 335.3L404.4 396L473.6 409Z" fill="#0c2435" stroke="#0c2435"></path><path d="M626.1 276.7L563.8 256.7L543.8 333.3Z" fill="#112e42" stroke="#112e42"></path><path d="M543.8 333.3L563.8 256.7L482.6 262.7Z" fill="#081a28" stroke="#081a28"></path><path d="M554.8 458.7L625.1 394L541.8 391Z" fill="#112e42" stroke="#112e42"></path><path d="M625.1 394L629.1 326.3L543.8 333.3Z" fill="#081a28" stroke="#081a28"></path><path d="M425.4 203L420.4 254.7L482.6 262.7Z" fill="#112e42" stroke="#112e42"></path><path d="M482.6 262.7L420.4 254.7L425.4 335.3Z" fill="#15384f" stroke="#15384f"></path><path d="M335.2 331.3L337.2 398L404.4 396Z" fill="#0c2435" stroke="#0c2435"></path><path d="M404.4 396L411.4 460.7L473.6 409Z" fill="#205a7a" stroke="#205a7a"></path><path d="M629.1 326.3L626.1 276.7L543.8 333.3Z" fill="#081a28" stroke="#081a28"></path><path d="M632.1 192L558.8 211L563.8 256.7Z" fill="#297ea6" stroke="#297ea6"></path><path d="M563.8 256.7L558.8 211L482.6 262.7Z" fill="#19435d" stroke="#19435d"></path><path d="M561.8 533.3L622.1 473.7L554.8 458.7Z" fill="#205a7a" stroke="#205a7a"></path><path d="M554.8 458.7L622.1 473.7L625.1 394Z" fill="#00101c" stroke="#00101c"></path><path d="M625.1 394L686.3 328.3L629.1 326.3Z" fill="#1d4e6b" stroke="#1d4e6b"></path><path d="M495.6 536.3L554.8 458.7L487.6 461.7Z" fill="#00101c" stroke="#00101c"></path><path d="M558.8 211L474.6 189L482.6 262.7Z" fill="#081a28" stroke="#081a28"></path><path d="M404.4 538.3L495.6 536.3L487.6 461.7Z" fill="#19435d" stroke="#19435d"></path><path d="M335.2 331.3L404.4 396L425.4 335.3Z" fill="#112e42" stroke="#112e42"></path><path d="M404.4 396L340.2 462.7L411.4 460.7Z" fill="#297ea6" stroke="#297ea6"></path><path d="M411.4 460.7L404.4 538.3L487.6 461.7Z" fill="#205a7a" stroke="#205a7a"></path><path d="M349.2 264.7L425.4 335.3L420.4 254.7Z" fill="#1d4e6b" stroke="#1d4e6b"></path><path d="M349.2 264.7L335.2 331.3L425.4 335.3Z" fill="#00101c" stroke="#00101c"></path><path d="M474.6 189L425.4 203L482.6 262.7Z" fill="#246688" stroke="#246688"></path><path d="M685.3 409L686.3 328.3L625.1 394Z" fill="#15384f" stroke="#15384f"></path><path d="M629.1 326.3L686.3 328.3L626.1 276.7Z" fill="#19435d" stroke="#19435d"></path><path d="M626.1 276.7L632.1 192L563.8 256.7Z" fill="#205a7a" stroke="#205a7a"></path><path d="M495.6 536.3L561.8 533.3L554.8 458.7Z" fill="#0c2435" stroke="#0c2435"></path><path d="M622.1 473.7L685.3 409L625.1 394Z" fill="#00101c" stroke="#00101c"></path><path d="M353.2 194L349.2 264.7L420.4 254.7Z" fill="#277297" stroke="#277297"></path><path d="M337.2 398L340.2 462.7L404.4 396Z" fill="#277297" stroke="#277297"></path><path d="M340.2 462.7L404.4 538.3L411.4 460.7Z" fill="#205a7a" stroke="#205a7a"></path><path d="M697.3 263.7L632.1 192L626.1 276.7Z" fill="#277297" stroke="#277297"></path><path d="M558.8 211L552.8 143.3L474.6 189Z" fill="#15384f" stroke="#15384f"></path><path d="M687.3 521.3L689.3 467.7L622.1 473.7Z" fill="#246688" stroke="#246688"></path><path d="M622.1 473.7L689.3 467.7L685.3 409Z" fill="#0c2435" stroke="#0c2435"></path><path d="M754.5 322.3L697.3 263.7L686.3 328.3Z" fill="#246688" stroke="#246688"></path><path d="M561.8 533.3L632.1 531.3L622.1 473.7Z" fill="#205a7a" stroke="#205a7a"></path><path d="M612.1 600L632.1 531.3L561.8 533.3Z" fill="#0c2435" stroke="#0c2435"></path><path d="M686.3 328.3L697.3 263.7L626.1 276.7Z" fill="#1d4e6b" stroke="#1d4e6b"></path><path d="M754.5 322.3L686.3 328.3L685.3 409Z" fill="#112e42" stroke="#112e42"></path><path d="M632.1 192L552.8 143.3L558.8 211Z" fill="#297ea6" stroke="#297ea6"></path><path d="M421.4 128.3L353.2 194L425.4 203Z" fill="#246688" stroke="#246688"></path><path d="M349.2 264.7L287.9 325.3L335.2 331.3Z" fill="#1d4e6b" stroke="#1d4e6b"></path><path d="M335.2 331.3L287.9 325.3L337.2 398Z" fill="#00101c" stroke="#00101c"></path><path d="M337.2 398L270.9 396L340.2 462.7Z" fill="#297ea6" stroke="#297ea6"></path><path d="M425.4 203L353.2 194L420.4 254.7Z" fill="#0c2435" stroke="#0c2435"></path><path d="M349.2 264.7L271.9 263.7L287.9 325.3Z" fill="#00101c" stroke="#00101c"></path><path d="M421.4 128.3L425.4 203L474.6 189Z" fill="#15384f" stroke="#15384f"></path><path d="M552.8 143.3L482.6 129.3L474.6 189Z" fill="#205a7a" stroke="#205a7a"></path><path d="M632.1 531.3L687.3 521.3L622.1 473.7Z" fill="#1d4e6b" stroke="#1d4e6b"></path><path d="M770.5 403L754.5 322.3L685.3 409Z" fill="#1d4e6b" stroke="#1d4e6b"></path><path d="M422.4 600L491.6 600L495.6 536.3Z" fill="#1d4e6b" stroke="#1d4e6b"></path><path d="M495.6 536.3L559.8 600L561.8 533.3Z" fill="#00101c" stroke="#00101c"></path><path d="M632.1 531.3L692.3 600L687.3 521.3Z" fill="#15384f" stroke="#15384f"></path><path d="M287.9 325.3L270.9 396L337.2 398Z" fill="#19435d" stroke="#19435d"></path><path d="M340.2 462.7L337.2 533.3L404.4 538.3Z" fill="#112e42" stroke="#112e42"></path><path d="M277.9 476.7L337.2 533.3L340.2 462.7Z" fill="#15384f" stroke="#15384f"></path><path d="M404.4 538.3L422.4 600L495.6 536.3Z" fill="#15384f" stroke="#15384f"></path><path d="M491.6 600L559.8 600L495.6 536.3Z" fill="#277297" stroke="#277297"></path><path d="M750.5 465.7L685.3 409L689.3 467.7Z" fill="#1d4e6b" stroke="#1d4e6b"></path><path d="M682.3 141.3L616.1 134.3L632.1 192Z" fill="#0c2435" stroke="#0c2435"></path><path d="M482.6 129.3L421.4 128.3L474.6 189Z" fill="#0c2435" stroke="#0c2435"></path><path d="M632.1 192L616.1 134.3L552.8 143.3Z" fill="#246688" stroke="#246688"></path><path d="M541.8 56.7L479.6 71.7L482.6 129.3Z" fill="#112e42" stroke="#112e42"></path><path d="M702.3 195L632.1 192L697.3 263.7Z" fill="#297ea6" stroke="#297ea6"></path><path d="M356.2 600L422.4 600L404.4 538.3Z" fill="#0c2435" stroke="#0c2435"></path><path d="M769.5 194L702.3 195L697.3 263.7Z" fill="#246688" stroke="#246688"></path><path d="M284.9 197L271.9 263.7L349.2 264.7Z" fill="#112e42" stroke="#112e42"></path><path d="M197.7 321.3L210.7 406L270.9 396Z" fill="#1d4e6b" stroke="#1d4e6b"></path><path d="M284.9 197L349.2 264.7L353.2 194Z" fill="#0c2435" stroke="#0c2435"></path><path d="M270.9 396L277.9 476.7L340.2 462.7Z" fill="#0c2435" stroke="#0c2435"></path><path d="M559.8 600L612.1 600L561.8 533.3Z" fill="#205a7a" stroke="#205a7a"></path><path d="M756.5 531.3L750.5 465.7L687.3 521.3Z" fill="#15384f" stroke="#15384f"></path><path d="M687.3 521.3L750.5 465.7L689.3 467.7Z" fill="#1d4e6b" stroke="#1d4e6b"></path><path d="M750.5 465.7L770.5 403L685.3 409Z" fill="#19435d" stroke="#19435d"></path><path d="M285.9 136.3L284.9 197L353.2 194Z" fill="#0c2435" stroke="#0c2435"></path><path d="M821.8 276.7L772.5 269.7L754.5 322.3Z" fill="#246688" stroke="#246688"></path><path d="M754.5 322.3L772.5 269.7L697.3 263.7Z" fill="#277297" stroke="#277297"></path><path d="M757.5 143.3L682.3 141.3L702.3 195Z" fill="#112e42" stroke="#112e42"></path><path d="M702.3 195L682.3 141.3L632.1 192Z" fill="#277297" stroke="#277297"></path><path d="M278.9 540.3L356.2 600L337.2 533.3Z" fill="#081a28" stroke="#081a28"></path><path d="M337.2 533.3L356.2 600L404.4 538.3Z" fill="#00101c" stroke="#00101c"></path><path d="M482.6 129.3L479.6 71.7L421.4 128.3Z" fill="#15384f" stroke="#15384f"></path><path d="M421.4 128.3L335.2 123.3L353.2 194Z" fill="#297ea6" stroke="#297ea6"></path><path d="M541.8 56.7L482.6 129.3L552.8 143.3Z" fill="#112e42" stroke="#112e42"></path><path d="M541.8 56.7L552.8 143.3L616.1 134.3Z" fill="#297ea6" stroke="#297ea6"></path><path d="M277.9 476.7L278.9 540.3L337.2 533.3Z" fill="#15384f" stroke="#15384f"></path><path d="M204.7 538.3L278.9 540.3L277.9 476.7Z" fill="#0c2435" stroke="#0c2435"></path><path d="M353.2 59.7L335.2 123.3L421.4 128.3Z" fill="#19435d" stroke="#19435d"></path><path d="M692.3 600L756.5 531.3L687.3 521.3Z" fill="#1d4e6b" stroke="#1d4e6b"></path><path d="M830.8 462.7L840.8 399L770.5 403Z" fill="#1d4e6b" stroke="#1d4e6b"></path><path d="M612.1 600L692.3 600L632.1 531.3Z" fill="#081a28" stroke="#081a28"></path><path d="M197.7 321.3L270.9 396L287.9 325.3Z" fill="#19435d" stroke="#19435d"></path><path d="M270.9 396L210.7 458.7L277.9 476.7Z" fill="#246688" stroke="#246688"></path><path d="M197.7 321.3L287.9 325.3L271.9 263.7Z" fill="#19435d" stroke="#19435d"></path><path d="M621.1 61.7L541.8 56.7L616.1 134.3Z" fill="#00101c" stroke="#00101c"></path><path d="M772.5 269.7L769.5 194L697.3 263.7Z" fill="#246688" stroke="#246688"></path><path d="M210.7 262.7L271.9 263.7L195.7 209Z" fill="#00101c" stroke="#00101c"></path><path d="M210.7 262.7L197.7 321.3L271.9 263.7Z" fill="#297ea6" stroke="#297ea6"></path><path d="M146.5 472.7L210.7 458.7L210.7 406Z" fill="#112e42" stroke="#112e42"></path><path d="M210.7 406L210.7 458.7L270.9 396Z" fill="#00101c" stroke="#00101c"></path><path d="M486.6 0L413.4 61.7L479.6 71.7Z" fill="#081a28" stroke="#081a28"></path><path d="M479.6 71.7L413.4 61.7L421.4 128.3Z" fill="#00101c" stroke="#00101c"></path><path d="M195.7 209L271.9 263.7L284.9 197Z" fill="#1d4e6b" stroke="#1d4e6b"></path><path d="M265.9 72.7L285.9 136.3L335.2 123.3Z" fill="#277297" stroke="#277297"></path><path d="M335.2 123.3L285.9 136.3L353.2 194Z" fill="#112e42" stroke="#112e42"></path><path d="M694.3 71.7L621.1 61.7L616.1 134.3Z" fill="#277297" stroke="#277297"></path><path d="M694.3 71.7L616.1 134.3L682.3 141.3Z" fill="#081a28" stroke="#081a28"></path><path d="M836.8 336.3L821.8 276.7L754.5 322.3Z" fill="#081a28" stroke="#081a28"></path><path d="M772.5 269.7L832.8 211L769.5 194Z" fill="#205a7a" stroke="#205a7a"></path><path d="M836.8 336.3L754.5 322.3L770.5 403Z" fill="#246688" stroke="#246688"></path><path d="M840.8 399L836.8 336.3L770.5 403Z" fill="#1d4e6b" stroke="#1d4e6b"></path><path d="M837.8 141.3L757.5 143.3L769.5 194Z" fill="#00101c" stroke="#00101c"></path><path d="M769.5 194L757.5 143.3L702.3 195Z" fill="#081a28" stroke="#081a28"></path><path d="M830.8 462.7L770.5 403L750.5 465.7Z" fill="#0c2435" stroke="#0c2435"></path><path d="M756.5 531.3L830.8 462.7L750.5 465.7Z" fill="#15384f" stroke="#15384f"></path><path d="M822.8 536.3L830.8 462.7L756.5 531.3Z" fill="#1d4e6b" stroke="#1d4e6b"></path><path d="M413.4 61.7L353.2 59.7L421.4 128.3Z" fill="#19435d" stroke="#19435d"></path><path d="M355.2 0L353.2 59.7L413.4 61.7Z" fill="#0c2435" stroke="#0c2435"></path><path d="M204.7 538.3L264.9 600L278.9 540.3Z" fill="#00101c" stroke="#00101c"></path><path d="M278.9 540.3L264.9 600L356.2 600Z" fill="#0c2435" stroke="#0c2435"></path><path d="M757.5 143.3L694.3 71.7L682.3 141.3Z" fill="#277297" stroke="#277297"></path><path d="M217.7 143.3L195.7 209L284.9 197Z" fill="#277297" stroke="#277297"></path><path d="M134.5 277.7L137.5 344.3L197.7 321.3Z" fill="#246688" stroke="#246688"></path><path d="M217.7 143.3L284.9 197L285.9 136.3Z" fill="#15384f" stroke="#15384f"></path><path d="M692.3 600L764.5 600L756.5 531.3Z" fill="#277297" stroke="#277297"></path><path d="M210.7 458.7L204.7 538.3L277.9 476.7Z" fill="#112e42" stroke="#112e42"></path><path d="M146.5 472.7L204.7 538.3L210.7 458.7Z" fill="#112e42" stroke="#112e42"></path><path d="M900 275.7L832.8 211L821.8 276.7Z" fill="#1d4e6b" stroke="#1d4e6b"></path><path d="M821.8 276.7L832.8 211L772.5 269.7Z" fill="#112e42" stroke="#112e42"></path><path d="M757.5 143.3L766.5 76.7L694.3 71.7Z" fill="#19435d" stroke="#19435d"></path><path d="M900 275.7L821.8 276.7L836.8 336.3Z" fill="#112e42" stroke="#112e42"></path><path d="M764.5 600L822.8 536.3L756.5 531.3Z" fill="#297ea6" stroke="#297ea6"></path><path d="M900 405L836.8 336.3L840.8 399Z" fill="#297ea6" stroke="#297ea6"></path><path d="M563.8 0L486.6 0L541.8 56.7Z" fill="#246688" stroke="#246688"></path><path d="M541.8 56.7L486.6 0L479.6 71.7Z" fill="#15384f" stroke="#15384f"></path><path d="M563.8 0L541.8 56.7L621.1 61.7Z" fill="#205a7a" stroke="#205a7a"></path><path d="M265.9 72.7L217.7 143.3L285.9 136.3Z" fill="#00101c" stroke="#00101c"></path><path d="M633.1 0L563.8 0L621.1 61.7Z" fill="#205a7a" stroke="#205a7a"></path><path d="M134.5 277.7L197.7 321.3L210.7 262.7Z" fill="#277297" stroke="#277297"></path><path d="M197.7 321.3L137.5 344.3L210.7 406Z" fill="#15384f" stroke="#15384f"></path><path d="M134.5 277.7L210.7 262.7L195.7 209Z" fill="#15384f" stroke="#15384f"></path><path d="M486.6 0L416.4 0L413.4 61.7Z" fill="#00101c" stroke="#00101c"></path><path d="M353.2 59.7L265.9 72.7L335.2 123.3Z" fill="#205a7a" stroke="#205a7a"></path><path d="M273.9 0L265.9 72.7L353.2 59.7Z" fill="#297ea6" stroke="#297ea6"></path><path d="M128.5 409L146.5 472.7L210.7 406Z" fill="#19435d" stroke="#19435d"></path><path d="M688.3 0L633.1 0L621.1 61.7Z" fill="#205a7a" stroke="#205a7a"></path><path d="M688.3 0L621.1 61.7L694.3 71.7Z" fill="#19435d" stroke="#19435d"></path><path d="M140.5 600L211.7 600L204.7 538.3Z" fill="#081a28" stroke="#081a28"></path><path d="M204.7 538.3L211.7 600L264.9 600Z" fill="#205a7a" stroke="#205a7a"></path><path d="M837.8 141.3L766.5 76.7L757.5 143.3Z" fill="#15384f" stroke="#15384f"></path><path d="M137.5 344.3L128.5 409L210.7 406Z" fill="#0c2435" stroke="#0c2435"></path><path d="M143.5 205L134.5 277.7L195.7 209Z" fill="#00101c" stroke="#00101c"></path><path d="M137.5 344.3L72.2 394L128.5 409Z" fill="#112e42" stroke="#112e42"></path><path d="M900 405L900 325.3L836.8 336.3Z" fill="#277297" stroke="#277297"></path><path d="M832.8 211L837.8 141.3L769.5 194Z" fill="#081a28" stroke="#081a28"></path><path d="M900 405L840.8 399L830.8 462.7Z" fill="#00101c" stroke="#00101c"></path><path d="M416.4 0L355.2 0L413.4 61.7Z" fill="#15384f" stroke="#15384f"></path><path d="M900 476.7L900 405L830.8 462.7Z" fill="#081a28" stroke="#081a28"></path><path d="M900 200L837.8 141.3L832.8 211Z" fill="#297ea6" stroke="#297ea6"></path><path d="M217.7 143.3L143.5 205L195.7 209Z" fill="#277297" stroke="#277297"></path><path d="M135.5 129.3L143.5 205L217.7 143.3Z" fill="#297ea6" stroke="#297ea6"></path><path d="M900 325.3L900 275.7L836.8 336.3Z" fill="#081a28" stroke="#081a28"></path><path d="M764.5 600L831.8 600L822.8 536.3Z" fill="#081a28" stroke="#081a28"></path><path d="M822.8 536.3L900 476.7L830.8 462.7Z" fill="#081a28" stroke="#081a28"></path><path d="M758.5 0L688.3 0L694.3 71.7Z" fill="#297ea6" stroke="#297ea6"></path><path d="M758.5 0L694.3 71.7L766.5 76.7Z" fill="#081a28" stroke="#081a28"></path><path d="M64.2 464.7L142.5 530.3L146.5 472.7Z" fill="#112e42" stroke="#112e42"></path><path d="M146.5 472.7L142.5 530.3L204.7 538.3Z" fill="#081a28" stroke="#081a28"></path><path d="M900 544.3L900 476.7L822.8 536.3Z" fill="#00101c" stroke="#00101c"></path><path d="M210.7 0L214.7 72.7L265.9 72.7Z" fill="#081a28" stroke="#081a28"></path><path d="M265.9 72.7L214.7 72.7L217.7 143.3Z" fill="#112e42" stroke="#112e42"></path><path d="M900 275.7L900 200L832.8 211Z" fill="#112e42" stroke="#112e42"></path><path d="M837.8 141.3L819.8 61.7L766.5 76.7Z" fill="#277297" stroke="#277297"></path><path d="M355.2 0L273.9 0L353.2 59.7Z" fill="#246688" stroke="#246688"></path><path d="M900 70.7L819.8 61.7L837.8 141.3Z" fill="#19435d" stroke="#19435d"></path><path d="M831.8 600L900 544.3L822.8 536.3Z" fill="#19435d" stroke="#19435d"></path><path d="M63.2 331.3L72.2 394L137.5 344.3Z" fill="#081a28" stroke="#081a28"></path><path d="M128.5 409L64.2 464.7L146.5 472.7Z" fill="#1d4e6b" stroke="#1d4e6b"></path><path d="M63.2 331.3L137.5 344.3L134.5 277.7Z" fill="#081a28" stroke="#081a28"></path><path d="M819.8 61.7L758.5 0L766.5 76.7Z" fill="#277297" stroke="#277297"></path><path d="M142.5 530.3L140.5 600L204.7 538.3Z" fill="#081a28" stroke="#081a28"></path><path d="M66.2 537.3L140.5 600L142.5 530.3Z" fill="#00101c" stroke="#00101c"></path><path d="M128.5 77.7L135.5 129.3L214.7 72.7Z" fill="#246688" stroke="#246688"></path><path d="M214.7 72.7L135.5 129.3L217.7 143.3Z" fill="#277297" stroke="#277297"></path><path d="M58.2 269.7L63.2 331.3L134.5 277.7Z" fill="#15384f" stroke="#15384f"></path><path d="M58.2 269.7L134.5 277.7L66.2 196Z" fill="#0c2435" stroke="#0c2435"></path><path d="M900 200L900 130.3L837.8 141.3Z" fill="#15384f" stroke="#15384f"></path><path d="M819.8 61.7L818.8 0L758.5 0Z" fill="#0c2435" stroke="#0c2435"></path><path d="M0 455.7L64.2 464.7L72.2 394Z" fill="#246688" stroke="#246688"></path><path d="M72.2 394L64.2 464.7L128.5 409Z" fill="#246688" stroke="#246688"></path><path d="M831.8 600L900 600L900 544.3Z" fill="#246688" stroke="#246688"></path><path d="M66.2 196L134.5 277.7L143.5 205Z" fill="#15384f" stroke="#15384f"></path><path d="M63.2 331.3L0 391L72.2 394Z" fill="#15384f" stroke="#15384f"></path><path d="M273.9 0L210.7 0L265.9 72.7Z" fill="#081a28" stroke="#081a28"></path><path d="M135.5 129.3L66.2 196L143.5 205Z" fill="#0c2435" stroke="#0c2435"></path><path d="M63.2 136.3L66.2 196L135.5 129.3Z" fill="#00101c" stroke="#00101c"></path><path d="M146.5 0L128.5 77.7L214.7 72.7Z" fill="#112e42" stroke="#112e42"></path><path d="M900 0L818.8 0L819.8 61.7Z" fill="#0c2435" stroke="#0c2435"></path><path d="M67.2 600L66.2 537.3L0 600Z" fill="#277297" stroke="#277297"></path><path d="M64.2 464.7L66.2 537.3L142.5 530.3Z" fill="#0c2435" stroke="#0c2435"></path><path d="M900 130.3L900 70.7L837.8 141.3Z" fill="#15384f" stroke="#15384f"></path><path d="M61.2 74.7L63.2 136.3L128.5 77.7Z" fill="#00101c" stroke="#00101c"></path><path d="M128.5 77.7L63.2 136.3L135.5 129.3Z" fill="#205a7a" stroke="#205a7a"></path><path d="M0 323.3L63.2 331.3L58.2 269.7Z" fill="#246688" stroke="#246688"></path><path d="M66.2 537.3L67.2 600L140.5 600Z" fill="#277297" stroke="#277297"></path><path d="M0 537.3L66.2 537.3L64.2 464.7Z" fill="#19435d" stroke="#19435d"></path><path d="M0 323.3L58.2 269.7L0 261.7Z" fill="#00101c" stroke="#00101c"></path><path d="M0 323.3L0 391L63.2 331.3Z" fill="#1d4e6b" stroke="#1d4e6b"></path><path d="M0 261.7L58.2 269.7L0 205Z" fill="#246688" stroke="#246688"></path><path d="M210.7 0L146.5 0L214.7 72.7Z" fill="#081a28" stroke="#081a28"></path><path d="M0 391L0 455.7L72.2 394Z" fill="#00101c" stroke="#00101c"></path><path d="M0 205L58.2 269.7L66.2 196Z" fill="#0c2435" stroke="#0c2435"></path><path d="M73.2 0L61.2 74.7L128.5 77.7Z" fill="#1d4e6b" stroke="#1d4e6b"></path><path d="M63.2 136.3L0 205L66.2 196Z" fill="#1d4e6b" stroke="#1d4e6b"></path><path d="M900 70.7L900 0L819.8 61.7Z" fill="#0c2435" stroke="#0c2435"></path><path d="M0 123.3L0 205L63.2 136.3Z" fill="#297ea6" stroke="#297ea6"></path><path d="M0 455.7L0 537.3L64.2 464.7Z" fill="#19435d" stroke="#19435d"></path><path d="M61.2 74.7L0 123.3L63.2 136.3Z" fill="#19435d" stroke="#19435d"></path><path d="M0 77.7L0 123.3L61.2 74.7Z" fill="#081a28" stroke="#081a28"></path><path d="M0 537.3L0 600L66.2 537.3Z" fill="#0c2435" stroke="#0c2435"></path><path d="M146.5 0L73.2 0L128.5 77.7Z" fill="#297ea6" stroke="#297ea6"></path><path d="M0 0L0 77.7L61.2 74.7Z" fill="#1d4e6b" stroke="#1d4e6b"></path><path d="M73.2 0L0 0L61.2 74.7Z" fill="#297ea6" stroke="#297ea6"></path></g></svg>